<svg width="100%" height="auto" viewBox="0 0 154 27" fill="none" xmlns="http://www.w3.org/2000/svg">
<path d="M0.547974 21V1.792H3.51597V11.928L12.056 1.792H15.304L8.47197 9.94L15.612 21H12.224L6.53997 12.208L3.51597 15.708V21H0.547974Z" fill="white"/>
<path d="M19.3032 21V6.692H22.1032V21H19.3032ZM19.2192 3.192V0.839996H22.1872V3.192H19.2192Z" fill="white"/>
<path d="M26.7628 21V6.692H28.7788L29.1708 8.792C29.6934 8.008 30.3654 7.42 31.1868 7.028C32.0268 6.61733 32.9321 6.412 33.9028 6.412C34.8921 6.412 35.7601 6.59866 36.5068 6.972C37.2721 7.34533 37.8694 7.90533 38.2988 8.652C38.7281 9.38 38.9428 10.2947 38.9428 11.396V21H36.1428V11.872C36.1428 10.696 35.8721 9.856 35.3308 9.352C34.7894 8.82933 34.0241 8.568 33.0348 8.568C32.4001 8.568 31.8121 8.72666 31.2708 9.044C30.7481 9.36133 30.3281 9.79066 30.0108 10.332C29.7121 10.8547 29.5628 11.4613 29.5628 12.152V21H26.7628Z" fill="white"/>
<path d="M49.2671 21.28C48.0351 21.28 46.9244 20.9907 45.9351 20.412C44.9644 19.8333 44.1991 19.0027 43.6391 17.92C43.0791 16.8373 42.7991 15.5587 42.7991 14.084V13.608C42.7991 12.096 43.0791 10.808 43.6391 9.744C44.1991 8.66133 44.9644 7.84 45.9351 7.28C46.9244 6.70133 48.0351 6.412 49.2671 6.412H49.6311C50.8818 6.412 51.9924 6.70133 52.9631 7.28C53.9338 7.85866 54.6991 8.68933 55.2591 9.772C55.8191 10.836 56.0991 12.1147 56.0991 13.608V14.084C56.0991 15.5587 55.8191 16.8373 55.2591 17.92C54.6991 19.0027 53.9244 19.8333 52.9351 20.412C51.9644 20.9907 50.8631 21.28 49.6311 21.28H49.2671ZM49.4351 19.292C50.1444 19.292 50.7791 19.124 51.3391 18.788C51.8991 18.452 52.3471 17.948 52.6831 17.276C53.0191 16.604 53.1871 15.7733 53.1871 14.784V12.908C53.1871 11.9 53.0191 11.0693 52.6831 10.416C52.3471 9.744 51.8991 9.24 51.3391 8.904C50.7791 8.568 50.1444 8.4 49.4351 8.4C48.7444 8.4 48.1191 8.568 47.5591 8.904C46.9991 9.24 46.5511 9.744 46.2151 10.416C45.8791 11.0693 45.7111 11.9 45.7111 12.908V14.784C45.7111 15.7733 45.8791 16.604 46.2151 17.276C46.5511 17.948 46.9991 18.452 47.5591 18.788C48.1191 19.124 48.7444 19.292 49.4351 19.292Z" fill="white"/>
<path d="M61.6114 26.264C60.9954 26.264 60.4074 26.1053 59.8474 25.788C59.306 25.4893 58.858 25.0787 58.5034 24.556C58.1674 24.052 57.9994 23.492 57.9994 22.876C57.9994 22.1853 58.186 21.56 58.5594 21C58.9514 20.4213 59.474 19.9827 60.1274 19.684C59.7167 19.404 59.39 19.0493 59.1474 18.62C58.9047 18.1907 58.7834 17.7427 58.7834 17.276C58.7834 16.5667 59.026 15.9507 59.5114 15.428C59.9967 14.8867 60.594 14.5133 61.3034 14.308C60.706 14.0093 60.202 13.608 59.7914 13.104C59.3994 12.5813 59.2034 11.9187 59.2034 11.116C59.2034 10.2947 59.4274 9.52933 59.8754 8.82C60.342 8.092 61.042 7.51333 61.9754 7.084C62.9087 6.636 64.0847 6.412 65.5034 6.412C66.0447 6.412 66.5394 6.43066 66.9874 6.468C67.4354 6.50533 67.846 6.56133 68.2194 6.636C68.9847 6.16933 69.5074 5.712 69.7874 5.264C70.086 4.816 70.2354 4.43333 70.2354 4.116H74.0154C74.0154 4.80666 73.8847 5.404 73.6234 5.908C73.3807 6.412 73.0354 6.82266 72.5874 7.14C72.1394 7.43866 71.598 7.672 70.9634 7.84L70.9354 7.924C71.402 8.316 71.7754 8.764 72.0554 9.268C72.354 9.772 72.5034 10.304 72.5034 10.864C72.5034 11.6853 72.2514 12.4413 71.7474 13.132C71.262 13.8227 70.5994 14.3733 69.7594 14.784C68.9194 15.1947 67.9674 15.4 66.9034 15.4H64.9154C64.3367 15.4 63.9167 15.4933 63.6554 15.68C63.394 15.8667 63.2634 16.1 63.2634 16.38C63.2634 16.66 63.3754 16.9027 63.5994 17.108C63.842 17.2947 64.2807 17.388 64.9154 17.388H69.3674C70.842 17.388 71.9807 17.7893 72.7834 18.592C73.6047 19.3947 74.0154 20.4027 74.0154 21.616C74.0154 22.4373 73.7914 23.2027 73.3434 23.912C72.8954 24.6213 72.2887 25.1907 71.5234 25.62C70.7767 26.0493 69.9087 26.264 68.9194 26.264H61.6114ZM63.6834 23.352H67.9674C68.3967 23.352 68.7607 23.2213 69.0594 22.96C69.358 22.6987 69.5074 22.3813 69.5074 22.008C69.5074 21.6533 69.3674 21.3453 69.0874 21.084C68.8074 20.8413 68.4527 20.72 68.0234 20.72H63.6834C63.254 20.72 62.89 20.8413 62.5914 21.084C62.3114 21.3453 62.1714 21.6533 62.1714 22.008C62.1714 22.3627 62.3114 22.6707 62.5914 22.932C62.89 23.212 63.254 23.352 63.6834 23.352ZM65.9234 12.88C66.5207 12.88 67.006 12.6933 67.3794 12.32C67.7714 11.928 67.9674 11.4613 67.9674 10.92C67.9674 10.3787 67.7714 9.912 67.3794 9.52C67.006 9.128 66.5207 8.932 65.9234 8.932C65.326 8.932 64.8407 9.128 64.4674 9.52C64.094 9.912 63.9074 10.3787 63.9074 10.92C63.9074 11.4613 64.094 11.928 64.4674 12.32C64.8407 12.6933 65.326 12.88 65.9234 12.88Z" fill="white"/>
<path d="M75.693 21V6.692H79.417L79.977 8.764C80.033 8.67066 80.145 8.50266 80.313 8.26C80.481 7.99866 80.7236 7.728 81.041 7.448C81.3583 7.168 81.741 6.92533 82.189 6.72C82.6556 6.51466 83.197 6.412 83.813 6.412C84.7463 6.412 85.5023 6.58933 86.081 6.944C86.6596 7.28 87.089 7.77466 87.369 8.428C87.649 9.08133 87.789 9.86533 87.789 10.78C87.789 11.004 87.7796 11.2653 87.761 11.564C87.7423 11.844 87.7143 12.124 87.677 12.404H83.589V11.76C83.589 11.4613 83.533 11.1813 83.421 10.92C83.3276 10.6587 83.169 10.444 82.945 10.276C82.7396 10.108 82.4596 10.024 82.105 10.024C81.8436 10.024 81.6103 10.08 81.405 10.192C81.2183 10.304 81.0596 10.444 80.929 10.612C80.817 10.7613 80.7236 10.948 80.649 11.172C80.593 11.3773 80.565 11.592 80.565 11.816V21H75.693Z" fill="white"/>
<path d="M96.3823 21.28C95.001 21.28 93.7597 20.9813 92.6583 20.384C91.5757 19.7867 90.717 18.9467 90.0824 17.864C89.4664 16.7813 89.1583 15.5307 89.1583 14.112V13.552C89.1583 12.1147 89.4664 10.864 90.0824 9.8C90.717 8.736 91.5757 7.90533 92.6583 7.308C93.741 6.71066 94.973 6.412 96.3543 6.412H97.1384C98.5384 6.412 99.7797 6.71066 100.862 7.308C101.945 7.90533 102.794 8.736 103.41 9.8C104.045 10.864 104.362 12.1147 104.362 13.552V14.112C104.362 15.5493 104.045 16.8093 103.41 17.892C102.794 18.956 101.945 19.7867 100.862 20.384C99.7797 20.9813 98.5477 21.28 97.1664 21.28H96.3823ZM96.7463 18.172C97.1943 18.172 97.5863 18.0693 97.9223 17.864C98.277 17.6587 98.557 17.3693 98.7624 16.996C98.9677 16.604 99.0704 16.1653 99.0704 15.68V11.984C99.0704 11.48 98.9677 11.0507 98.7624 10.696C98.557 10.3227 98.277 10.0333 97.9223 9.828C97.5863 9.604 97.1943 9.492 96.7463 9.492C96.3357 9.492 95.953 9.604 95.5984 9.828C95.2437 10.0333 94.9637 10.3227 94.7583 10.696C94.553 11.0507 94.4503 11.48 94.4503 11.984V15.68C94.4503 16.1653 94.553 16.604 94.7583 16.996C94.9637 17.3693 95.2437 17.6587 95.5984 17.864C95.953 18.0693 96.3357 18.172 96.7463 18.172Z" fill="white"/>
<path d="M113.445 21.28C112.064 21.28 110.822 20.9813 109.721 20.384C108.638 19.7867 107.78 18.9467 107.145 17.864C106.529 16.7813 106.221 15.5307 106.221 14.112V13.552C106.221 12.1147 106.529 10.864 107.145 9.8C107.78 8.736 108.638 7.90533 109.721 7.308C110.804 6.71066 112.036 6.412 113.417 6.412H114.201C115.601 6.412 116.842 6.71066 117.925 7.308C119.008 7.90533 119.857 8.736 120.473 9.8C121.108 10.864 121.425 12.1147 121.425 13.552V14.112C121.425 15.5493 121.108 16.8093 120.473 17.892C119.857 18.956 119.008 19.7867 117.925 20.384C116.842 20.9813 115.61 21.28 114.229 21.28H113.445ZM113.809 18.172C114.257 18.172 114.649 18.0693 114.985 17.864C115.34 17.6587 115.62 17.3693 115.825 16.996C116.03 16.604 116.133 16.1653 116.133 15.68V11.984C116.133 11.48 116.03 11.0507 115.825 10.696C115.62 10.3227 115.34 10.0333 114.985 9.828C114.649 9.604 114.257 9.492 113.809 9.492C113.398 9.492 113.016 9.604 112.661 9.828C112.306 10.0333 112.026 10.3227 111.821 10.696C111.616 11.0507 111.513 11.48 111.513 11.984V15.68C111.513 16.1653 111.616 16.604 111.821 16.996C112.026 17.3693 112.306 17.6587 112.661 17.864C113.016 18.0693 113.398 18.172 113.809 18.172Z" fill="white"/>
<path d="M127.231 21L122.443 6.692H127.735L130.227 15.428H130.423L132.915 6.692H137.759L132.915 21H127.231Z" fill="white"/>
<path d="M146.152 21.28C144.733 21.28 143.464 21.0093 142.344 20.468C141.224 19.9267 140.347 19.1333 139.712 18.088C139.077 17.024 138.76 15.7453 138.76 14.252V13.44C138.76 11.9467 139.077 10.6773 139.712 9.632C140.347 8.568 141.224 7.76533 142.344 7.224C143.483 6.68266 144.761 6.412 146.18 6.412H146.796C148.215 6.412 149.419 6.68266 150.408 7.224C151.416 7.76533 152.181 8.512 152.704 9.464C153.245 10.416 153.516 11.5173 153.516 12.768V14.504H144.052C144.052 15.1947 144.127 15.82 144.276 16.38C144.425 16.94 144.668 17.3787 145.004 17.696C145.34 18.0133 145.816 18.172 146.432 18.172C146.955 18.172 147.393 18.0787 147.748 17.892C148.121 17.6867 148.401 17.388 148.588 16.996C148.793 16.604 148.896 16.1467 148.896 15.624H153.488C153.488 16.688 153.199 17.6493 152.62 18.508C152.06 19.3667 151.257 20.048 150.212 20.552C149.185 21.0373 147.963 21.28 146.544 21.28H146.152ZM144.08 12.236H148.616C148.616 11.284 148.411 10.5933 148 10.164C147.589 9.716 147.048 9.492 146.376 9.492C145.704 9.492 145.153 9.72533 144.724 10.192C144.295 10.6587 144.08 11.34 144.08 12.236Z" fill="white"/>
</svg>
